<?xml version="1.0" encoding="UTF-8" standalone="no"?>
<svg
   xmlns:dc="http://purl.org/dc/elements/1.1/"
   xmlns:cc="http://creativecommons.org/ns#"
   xmlns:rdf="http://www.w3.org/1999/02/22-rdf-syntax-ns#"
   xmlns:svg="http://www.w3.org/2000/svg"
   xmlns="http://www.w3.org/2000/svg"
   viewBox="0 0 933.50549 396.81259"
   height="396.81259"
   width="933.50549"
   xml:space="preserve"
   id="svg1846"
   version="1.1"><metadata
     id="metadata1852"><rdf:RDF><cc:Work
         rdf:about=""><dc:format>image/svg+xml</dc:format><dc:type
           rdf:resource="http://purl.org/dc/dcmitype/StillImage" /><dc:title></dc:title></cc:Work></rdf:RDF></metadata><defs
     id="defs1850"><clipPath
       id="clipPath1862"
       clipPathUnits="userSpaceOnUse"><path
         style="clip-rule:evenodd"
         id="path1860"
         d="M 0,0 H 700.1 V 297.6 H 0 Z" /></clipPath></defs><g
     transform="matrix(1.3333333,0,0,-1.3333333,0,396.8126)"
     id="g1854"><g
       id="g1856"><g
         clip-path="url(#clipPath1862)"
         id="g1858"><path
           id="path1864"
           style="fill:#333333;fill-opacity:1;fill-rule:evenodd;stroke:none"
           d="M -0.1,297.7 H 700.2 V -0.1 H -0.1 Z" /><g
           id="g1866"><text
             id="text1870"
             style="font-variant:normal;font-weight:normal;font-size:12px;font-family:'DejaVu Sans Mono';-inkscape-font-specification:DejaVuSansMono;writing-mode:lr-tb;fill:#ffffff;fill-opacity:1;fill-rule:nonzero;stroke:none"
             transform="matrix(1,0,0,-1,28.5,258.1)"><tspan
               id="tspan1868"
               y="0"
               x="0 7.1999998 14.4 21.6 28.884001 36.084 43.284 50.568001 57.768002 64.968002 72.167999 79.367996 86.652 93.851997 101.052 108.252 115.536 122.736 129.936 137.136 144.42 151.62 158.82001 166.02 173.304 180.504 187.70399 194.90401 202.188 209.388 216.588 223.87199 231.07201 238.272 245.472 252.672 259.95599 267.15601 274.35599 281.64001 288.84 296.04001 303.23999 310.44 317.724 324.92401 332.12399 339.32401 346.608 353.80801 361.008 368.20801 375.492 382.69199 389.892 397.09201 404.37601 411.57599 418.776 425.97601 433.26001 440.45999 447.66 454.85999 462.14401 469.34399 476.54401 483.74399 491.02802 498.228 505.42801 512.62799 519.91199 527.112 534.31201 541.51202 548.79602 555.99597 563.19598 570.396 577.67999 584.88 592.08002 599.28003 606.56403 613.76398 620.96399">$ dart --enable-experiment=non-nullable bin/minimal_test.dart example/bin/example.dart </tspan></text>
</g><g
           id="g1872"><text
             id="text1876"
             style="font-variant:normal;font-weight:normal;font-size:12px;font-family:'DejaVu Sans Mono';-inkscape-font-specification:DejaVuSansMono;writing-mode:lr-tb;fill:#ffffff;fill-opacity:1;fill-rule:nonzero;stroke:none"
             transform="matrix(1,0,0,-1,28.5,244.1)"><tspan
               id="tspan1874"
               y="0"
               x="0 7.1999998 14.4 21.6 28.884001 36.084 43.284 50.568001 57.768002 64.968002 72.167999 79.367996 86.652 93.851997 101.052 108.252 115.536 122.736 129.936 137.22">Finding test files: </tspan></text>
</g><g
           id="g1878"><text
             id="text1882"
             style="font-variant:normal;font-weight:normal;font-size:12px;font-family:'DejaVu Sans Mono';-inkscape-font-specification:DejaVuSansMono;writing-mode:lr-tb;fill:#ffffff;fill-opacity:1;fill-rule:nonzero;stroke:none"
             transform="matrix(1,0,0,-1,42.9,230.1)"><tspan
               id="tspan1880"
               y="0"
               x="0 7.1999998 14.484 21.684 28.884001 36.084 43.368 50.568001 57.768002 64.968002 72.251999 79.452003 86.652 93.851997 101.136 108.336 115.536 122.736 130.02 137.22 144.42 151.62 158.90401 166.104">example/bin/example.dart</tspan></text>
</g><g
           id="g1884"><text
             id="text1888"
             style="font-variant:normal;font-weight:normal;font-size:12px;font-family:'DejaVu Sans Mono';-inkscape-font-specification:DejaVuSansMono;writing-mode:lr-tb;fill:#ffffff;fill-opacity:1;fill-rule:nonzero;stroke:none"
             transform="matrix(1,0,0,-1,28.5,216.1)"><tspan
               id="tspan1886"
               y="0"
               x="0 7.1999998 14.4 21.6 28.884001 36.084 43.284 50.568001 57.768002 64.968002 72.167999 79.367996 86.652 93.851997 101.052 108.252 115.536 122.736 129.936 137.22 144.42 151.62 158.82001 166.02 173.304 180.504 187.70399 194.90401 202.188 209.388 216.588 223.78799 231.07201 238.272 245.472 252.672 259.95599 267.15601 274.35599 281.556 288.84 296.04001 303.23999 310.52399 317.724 324.92401 332.12399 339.32401 346.608 353.80801 361.008 368.29199 375.492 382.69199 389.892 397.09201 404.37601 411.57599 418.776 425.97601 433.26001 440.45999 447.66 454.85999 462.14401 469.34399 476.54401 483.74399 491.02802 498.228 505.42801 512.62799 519.91199 527.112 534.31201 541.51202">Running test: dart --enable-experiment=non-nullable example/bin/example.dart</tspan></text>
</g><g
           id="g1890" /><g
           id="g1892"><text
             id="text1896"
             style="font-variant:normal;font-weight:bold;font-size:12px;font-family:'DejaVu Sans Mono';-inkscape-font-specification:DejaVuSansMono-Bold;writing-mode:lr-tb;fill:#49abfa;fill-opacity:1;fill-rule:nonzero;stroke:none"
             transform="matrix(1,0,0,-1,42.9,202.1)"><tspan
               id="tspan1894"
               y="0"
               x="0 7.1999998 14.484 21.684 28.884001 36.084 43.368 50.568001 57.768002 65.052002 72.251999 79.452003 86.652 93.851997 101.136 108.336">group-1: Class A</tspan></text>
</g><g
           id="g1898"><text
             id="text1902"
             style="font-variant:normal;font-weight:normal;font-size:12px;font-family:'DejaVu Sans Mono';-inkscape-font-specification:DejaVuSansMono;writing-mode:lr-tb;fill:#49abfa;fill-opacity:1;fill-rule:nonzero;stroke:none"
             transform="matrix(1,0,0,-1,57.384,188.1)"><tspan
               id="tspan1900"
               y="0"
               x="0 7.1999998 14.4 21.6 28.884001 36.084 43.284 50.568001 57.768002 64.968002 72.167999 79.367996 86.652 93.851997 101.052 108.252 115.536 122.736 129.936 137.136 144.42 151.62 158.82001 166.02 173.304">test-1: Comparing copies.</tspan></text>
</g><g
           id="g1904" /><g
           id="g1906"><text
             id="text1910"
             style="font-variant:normal;font-weight:normal;font-size:12px;font-family:'DejaVu Sans Mono';-inkscape-font-specification:DejaVuSansMono;writing-mode:lr-tb;fill:#12e688;fill-opacity:1;fill-rule:nonzero;stroke:none"
             transform="matrix(1,0,0,-1,71.8,174.1)"><tspan
               id="tspan1908"
               y="0"
               x="0 7.1999998 14.484 21.684 28.884001 36.084">passed</tspan></text>
</g><g
           id="g1912" /><g
           id="g1914"><text
             id="text1918"
             style="font-variant:normal;font-weight:normal;font-size:12px;font-family:'DejaVu Sans Mono';-inkscape-font-specification:DejaVuSansMono;writing-mode:lr-tb;fill:#49abfa;fill-opacity:1;fill-rule:nonzero;stroke:none"
             transform="matrix(1,0,0,-1,57.4,160.1)"><tspan
               id="tspan1916"
               y="0"
               x="0 7.1999998 14.4 21.6 28.884001 36.084 43.284 50.568001 57.768002 64.968002 72.167999 79.367996 86.652 93.851997 101.052 108.252 115.536 122.736 129.936 137.136 144.42 151.62 158.82001 166.02 173.304 180.504 187.70399 194.98801 202.188 209.388 216.588 223.78799 231.07201 238.272 245.472">test-2: Comparing different objects</tspan></text>
</g><g
           id="g1920" /><g
           id="g1922"><text
             id="text1926"
             style="font-variant:normal;font-weight:normal;font-size:12px;font-family:'DejaVu Sans Mono';-inkscape-font-specification:DejaVuSansMono;writing-mode:lr-tb;fill:#fff200;fill-opacity:1;fill-rule:nonzero;stroke:none"
             transform="matrix(1,0,0,-1,71.8,146.1)"><tspan
               id="tspan1924"
               y="0"
               x="0 7.1999998 14.484 21.684 28.884001 36.084 43.368 50.568001 57.768002 64.968002 72.251999 79.452003 86.652 93.851997 101.136 108.336 115.536 122.82 130.02 137.22 144.42 151.62 158.90401 166.104 173.304">failed: Expected to fail.</tspan></text>
</g><g
           id="g1928" /><g
           id="g1930"><text
             id="text1934"
             style="font-variant:normal;font-weight:normal;font-size:12px;font-family:'DejaVu Sans Mono';-inkscape-font-specification:DejaVuSansMono;writing-mode:lr-tb;fill:#fd02df;fill-opacity:1;fill-rule:nonzero;stroke:none"
             transform="matrix(1,0,0,-1,86.3,132.1)"><tspan
               id="tspan1932"
               y="0"
               x="0 7.1999998 14.4 21.6 28.884001 36.084 43.284 50.484001 57.768002">Expected:</tspan></text>
</g><g
           id="g1936"><text
             id="text1940"
             style="font-variant:normal;font-weight:normal;font-size:12px;font-family:'DejaVu Sans Mono';-inkscape-font-specification:DejaVuSansMono;writing-mode:lr-tb;fill:#ffffff;fill-opacity:1;fill-rule:nonzero;stroke:none"
             transform="matrix(1,0,0,-1,158.584,132.1)"><tspan
               id="tspan1938"
               y="0"
               x="0 7.1999998 14.4 21.6 28.799999">A: a1</tspan></text>
</g><g
           id="g1942" /><g
           id="g1944"><text
             id="text1948"
             style="font-variant:normal;font-weight:normal;font-size:12px;font-family:'DejaVu Sans Mono';-inkscape-font-specification:DejaVuSansMono;writing-mode:lr-tb;fill:#fd02df;fill-opacity:1;fill-rule:nonzero;stroke:none"
             transform="matrix(1,0,0,-1,86.3,118.1)"><tspan
               id="tspan1946"
               y="0"
               x="0 7.1999998 14.4 21.6 28.884001 36.084 43.284">Actual:</tspan></text>
</g><g
           id="g1950"><text
             id="text1954"
             style="font-variant:normal;font-weight:normal;font-size:12px;font-family:'DejaVu Sans Mono';-inkscape-font-specification:DejaVuSansMono;writing-mode:lr-tb;fill:#ffffff;fill-opacity:1;fill-rule:nonzero;stroke:none"
             transform="matrix(1,0,0,-1,158.584,118.1)"><tspan
               id="tspan1952"
               y="0"
               x="0 7.1999998 14.4 21.6 28.799999">A: a2</tspan></text>
</g><g
           id="g1956" /><g
           id="g1958"><text
             id="text1962"
             style="font-variant:normal;font-weight:normal;font-size:12px;font-family:'DejaVu Sans Mono';-inkscape-font-specification:DejaVuSansMono;writing-mode:lr-tb;fill:#49abfa;fill-opacity:1;fill-rule:nonzero;stroke:none"
             transform="matrix(1,0,0,-1,57.4,104.1)"><tspan
               id="tspan1960"
               y="0"
               x="0 7.1999998 14.4 21.6 28.884001 36.084 43.284 50.568001 57.768002 64.968002 72.167999 79.367996 86.652 93.851997 101.052 108.252 115.536 122.736 129.936 137.136 144.42 151.62 158.82001 166.02 173.304 180.504 187.70399 194.90401 202.188 209.388 216.588 223.78799 231.07201 238.272 245.472 252.672 259.95599">test-3: Using custom matcher function</tspan></text>
</g><g
           id="g1964" /><g
           id="g1966"><text
             id="text1970"
             style="font-variant:normal;font-weight:normal;font-size:12px;font-family:'DejaVu Sans Mono';-inkscape-font-specification:DejaVuSansMono;writing-mode:lr-tb;fill:#12e688;fill-opacity:1;fill-rule:nonzero;stroke:none"
             transform="matrix(1,0,0,-1,71.8,90.1)"><tspan
               id="tspan1968"
               y="0"
               x="0 7.1999998 14.484 21.684 28.884001 36.084">passed</tspan></text>
</g><g
           id="g1972" /><g
           id="g1974"><text
             id="text1978"
             style="font-variant:normal;font-weight:normal;font-size:12px;font-family:'DejaVu Sans Mono';-inkscape-font-specification:DejaVuSansMono;writing-mode:lr-tb;fill:#ffffff;fill-opacity:1;fill-rule:nonzero;stroke:none"
             transform="matrix(1,0,0,-1,28.5,62.1)"><tspan
               id="tspan1976"
               y="0"
               x="0 7.1999998 14.4 21.6 28.884001 36.084 43.284 50.568001 57.768002 64.968002 72.167999 79.367996 86.652 93.851997 101.052 108.252 115.536 122.736 129.936 137.136 144.42 151.62 158.82001 166.104">Number of failed tests: </tspan></text>
</g><g
           id="g1980"><text
             id="text1984"
             style="font-variant:normal;font-weight:normal;font-size:12px;font-family:'DejaVu Sans Mono';-inkscape-font-specification:DejaVuSansMono;writing-mode:lr-tb;fill:#ce181e;fill-opacity:1;fill-rule:nonzero;stroke:none"
             transform="matrix(1,0,0,-1,201.9,62.1)"><tspan
               id="tspan1982"
               y="0"
               x="0">1</tspan></text>
</g><g
           id="g1986"><text
             id="text1990"
             style="font-variant:normal;font-weight:normal;font-size:12px;font-family:'DejaVu Sans Mono';-inkscape-font-specification:DejaVuSansMono;writing-mode:lr-tb;fill:#ffffff;fill-opacity:1;fill-rule:nonzero;stroke:none"
             transform="matrix(1,0,0,-1,209.1,62.1)"><tspan
               id="tspan1988"
               y="0"
               x="0">.</tspan></text>
</g><g
           id="g1992"><text
             id="text1996"
             style="font-variant:normal;font-weight:normal;font-size:12px;font-family:'DejaVu Sans Mono';-inkscape-font-specification:DejaVuSansMono;writing-mode:lr-tb;fill:#ffffff;fill-opacity:1;fill-rule:nonzero;stroke:none"
             transform="matrix(1,0,0,-1,28.5,48.1)"><tspan
               id="tspan1994"
               y="0"
               x="0 7.1999998 14.4 21.6 28.884001 36.084 43.284 50.568001 57.768002 64.968002 72.167999 79.367996 86.652">Exiting with </tspan></text>
</g><g
           id="g1998"><text
             id="text2002"
             style="font-variant:normal;font-weight:normal;font-size:12px;font-family:'DejaVu Sans Mono';-inkscape-font-specification:DejaVuSansMono;writing-mode:lr-tb;fill:#ce181e;fill-opacity:1;fill-rule:nonzero;stroke:none"
             transform="matrix(1,0,0,-1,122.4,48.1)"><tspan
               id="tspan2000"
               y="0"
               x="0 7.1999998 14.484 21.684 28.884001 36.084 43.368 50.568001 57.768002 64.968002 72.251999 79.452003 86.652 93.851997 101.136 108.336 115.536 122.736 130.02 137.22 144.42 151.62 158.90401 166.104">ExitCode.SomeTestsFailed</tspan></text>
</g><g
           id="g2004"><text
             id="text2008"
             style="font-variant:normal;font-weight:normal;font-size:12px;font-family:'DejaVu Sans Mono';-inkscape-font-specification:DejaVuSansMono;writing-mode:lr-tb;fill:#ffffff;fill-opacity:1;fill-rule:nonzero;stroke:none"
             transform="matrix(1,0,0,-1,295.8,48.1)"><tspan
               id="tspan2006"
               y="0"
               x="0">.</tspan></text>
</g></g></g></g></svg>